<svg width="36" height="37" viewBox="0 0 36 37" fill="none" xmlns="http://www.w3.org/2000/svg">
<g id="box">
<path id="Vector" d="M31.5 24.5V12.5C31.4995 11.9739 31.3606 11.4572 31.0973 11.0017C30.834 10.5462 30.4556 10.168 30 9.90498L19.5 3.90498C19.0439 3.64167 18.5266 3.50305 18 3.50305C17.4734 3.50305 16.9561 3.64167 16.5 3.90498L6 9.90498C5.54439 10.168 5.16597 10.5462 4.90269 11.0017C4.63941 11.4572 4.50054 11.9739 4.5 12.5V24.5C4.50054 25.0261 4.63941 25.5428 4.90269 25.9982C5.16597 26.4537 5.54439 26.8319 6 27.095L16.5 33.095C16.9561 33.3583 17.4734 33.4969 18 33.4969C18.5266 33.4969 19.0439 33.3583 19.5 33.095L30 27.095C30.4556 26.8319 30.834 26.4537 31.0973 25.9982C31.3606 25.5428 31.4995 25.0261 31.5 24.5Z" stroke="#5CE0E6" stroke-width="2" stroke-linecap="round" stroke-linejoin="round"/>
<path id="Vector_2" d="M4.90503 10.9399L18 18.5149L31.095 10.9399" stroke="#5CE0E6" stroke-width="2" stroke-linecap="round" stroke-linejoin="round"/>
<path id="Vector_3" d="M18 33.62V18.5" stroke="#5CE0E6" stroke-width="2" stroke-linecap="round" stroke-linejoin="round"/>
</g>
</svg>
